<?xml version="1.0" encoding="UTF-8"?>
<svg id="R2-1" xmlns="http://www.w3.org/2000/svg" width="24in" height="30in" viewBox="0 0 1728 2160">
  <g>
    <rect width="1728" height="2160" rx="108" ry="108" style="fill: #fff;"/>
    <path d="M1620,2.2536c58.3088,0,105.7463,47.4375,105.7463,105.7464v1944c0,58.3088-47.4375,105.7463-105.7463,105.7463H108c-58.3089,0-105.7464-47.4375-105.7464-105.7463V108C2.2536,49.6911,49.6911,2.2536,108,2.2536h1512M1620,0H108C48.3533,0,0,48.3533,0,108v1944c0,59.6467,48.3533,108,108,108h1512c59.6466,0,108-48.3533,108-108V108c0-59.6467-48.3534-108-108-108h0Z"/>
  </g>
  <path d="M1620,27H108c-44.66,0-81,36.34-81,81v1944c0,44.6599,36.34,81,81,81h1512c44.6599,0,81-36.3401,81-81V108c0-44.66-36.3401-81-81-81ZM1656,2052c0,19.8501-16.15,36-36,36H108c-19.85,0-36-16.1499-36-36V108c0-19.85,16.15-36,36-36h1512c19.85,0,36,16.15,36,36v1944Z"/>
  <g id="SPEED">
    <path d="M368.3126,561.6359c-20.3014,12.276-46.5423,19.4761-73.0351,19.4761-49.7102,0-87.2896-18.432-119.758-56.3401l41.6111-32.7961c21.3097,25.596,44.635,36.9001,77.103,36.9001,36.5354,0,62.9203-17.1721,62.9203-37.9081,0-29.2678-29.1925-31.2481-109.7868-53.892-40.531-11.3759-58.6727-42.228-58.6727-73.1518,0-48.2043,40.6389-80.9281,99.4556-80.9281,42.6189,0,78.2187,14.2918,107.5914,45.0003l-38.5876,34.8476c-18.2496-19.4761-41.6111-28.6921-69.0038-28.6921-31.5681,0-46.6502,12.8161-46.6502,29.3762,0,31.9317,39.1994,24.8762,110.8307,50.1118,50.574,17.8562,56.5853,61.056,56.5853,79.3444,0,29.7-13.2105,52.2717-40.6033,68.6517Z"/>
    <path d="M524.8535,462.8159v113.1841h-52.554v-288h140.8875c60.6888,0,92.5088,46.1879,92.5088,87.4079,0,38.3041-28.5085,87.4079-90.2774,87.4079h-90.565ZM524.8535,339.5519v71.7121h87.0015c25.2331,0,42.4031-14.1478,42.4031-35.3521,0-22.2479-16.8463-36.36-42.4749-36.36h-86.9297Z"/>
    <path d="M760.4418,288h210.8987v51.5519h-158.1654v53.5321h86.1738v52.5598h-86.1738v78.8043h163.2407v51.5519h-215.9739v-288Z"/>
    <path d="M1039.8018,288h210.8987v51.5519h-158.165v53.5321h86.1733v52.5598h-86.1733v78.8043h163.2402v51.5519h-215.9739v-288Z"/>
    <path d="M1319.1598,288h92.9771c83.0054,0,140.3826,60.3362,140.3826,143.496,0,79.1281-51.2942,144.504-137.827,144.504h-95.5328v-288ZM1371.6416,339.5519v184.8962h39.9192c46.1458,0,89.521-30.456,89.521-92.9521,0-58.104-36.3918-91.9441-89.1255-91.9441h-40.3147Z"/>
  </g>
  <g id="LIMIT">
    <path d="M337.5,720h51.7377v243.5398h164.286v44.4602h-216.0237v-288Z"/>
    <path d="M602.1596,720h51.8461v288h-51.8461v-288Z"/>
    <path d="M948.713,832.1762l-85.2211,175.8238-84.2131-175.8238v175.8238h-50.7292v-288h50.7292l84.2131,170.7841,85.2211-170.7841h50.7297v288h-50.7297v-175.8238Z"/>
    <path d="M1074.0099,720h51.8451v288h-51.8451v-288Z"/>
    <path d="M1307.7277,1008h-50.4776v-237.4561h-82.7733v-50.5439h216.0232v50.5439h-82.7723v237.4561Z"/>
  </g>
  <g>
    <path d="M231.2893,1490.4874l22.8603-338.4907h482.0401l-2.5196,126.3598h-357.7503l-7.6502,103.6801c58.3203-12.5093,93.8701-17.7293,139.5903-17.7293,164.9698,0,284.13,111.1501,284.13,260.1896,0,151.56-126.8998,260.1905-304.4702,260.1905-98.9099,0-187.7403-25.2003-279.0903-80.8198l68.4902-108.6305c81.0898,47.0703,156.4201,58.0503,215.9104,58.0503,111.3298,0,169.3801-54.0003,169.3801-126.4506,0-62.4596-34.8301-131.2193-154.4405-131.2193-53.01,0-90.4501,5.8499-147.1502,27.7199l-129.3301-32.85Z"/>
    <path d="M914.4101,1510.7372c0-189.1807,91.1698-371.2508,303.8393-371.2508,216.091,0,301.3212,185.581,301.3212,368.821,0,184.3202-83.9703,376.2901-301.3212,376.2901-215.1892,0-303.8393-184.6806-303.8393-373.8603ZM1218.2494,1268.1871c-129.1499,0-174.6894,133.9196-174.6894,240.0295,0,159.2107,65.7894,247.5006,174.6894,247.5006,112.3211,0,172.1703-110.3396,172.1703-244.9799,0-151.56-63.2692-242.5502-172.1703-242.5502Z"/>
  </g>
</svg>