<svg id="R3-4" xmlns="http://www.w3.org/2000/svg" width="24in" height="24in" viewBox="0 0 1728 1728">
  <g>
    <rect width="1728" height="1728" rx="108" fill="#fff"/>
    <path d="M1620,2.2537A105.8661,105.8661,0,0,1,1725.7463,108V1620A105.8661,105.8661,0,0,1,1620,1725.7463H108A105.8661,105.8661,0,0,1,2.2537,1620V108A105.8661,105.8661,0,0,1,108,2.2537ZM108,0A108,108,0,0,0,0,108V1620a108,108,0,0,0,108,108H1620a108,108,0,0,0,108-108V108A108,108,0,0,0,1620,0Z"/>
  </g>
  <path d="M1620,27H108a81.0963,81.0963,0,0,0-81,81V1620a81.0964,81.0964,0,0,0,81,81H1620a81.0964,81.0964,0,0,0,81-81V108A81.0964,81.0964,0,0,0,1620,27Zm36,1593a36.0414,36.0414,0,0,1-36,36H108a36.0414,36.0414,0,0,1-36-36V108a36.0414,36.0414,0,0,1,36-36H1620a36.0414,36.0414,0,0,1,36,36Z"/>
  <g>
    <path d="M787.3644,898.0635,594,958.464,399.2805,898.0635c-32.0069-12.8686-62.0133,24.7473-42.009,53.4541L594.3227,1296l236.051-344.4824C850.378,922.8108,820.3716,885.1949,787.3644,898.0635Z"/>
    <path d="M1224,1296H1044V702c0-99.2524-80.748-180-180-180S684,602.7476,684,702V958.4639H504V702a360,360,0,1,1,720,0Z"/>
  </g>
  <path d="M864,108c-417.53,0-756,338.47-756,756s338.47,756,756,756,756-338.47,756-756S1281.53,108,864,108Zm0,1368c-338,0-612-274-612-612A609.3813,609.3813,0,0,1,383.32,485.15l859.53,859.53A609.3814,609.3814,0,0,1,864,1476Zm480.68-233.15L485.15,383.32A609.3813,609.3813,0,0,1,864,252c338,0,612,274,612,612A609.3816,609.3816,0,0,1,1344.68,1242.85Z" fill="#af1e2d"/>
</svg>
