<?xml version="1.0" encoding="UTF-8"?>
<svg width="30in" height="30in" viewBox="0 0 2160 2160" xmlns="http://www.w3.org/2000/svg">
<defs>
<style>.a{fill:#fff;}</style>
</defs>
<polygon class="a" points="1527.4 0 632.65 0 0 632.65 0 1527.4 632.65 2160 1527.4 2160 2160 1527.4 2160 632.65"/>
<path d="M1526.417,2.254l631.329,631.329v892.834l-631.329,631.329H633.583L2.254,1526.417V633.583L633.583,2.254h892.834M1527.351,0h-894.7L0,632.649v894.7L632.649,2160h894.7L2160,1527.351v-894.7L1527.351,0Z"/>
<polygon points="655.02 2106 54 1505 54 655.02 655.02 54 1505 54 2106 655.02 2106 1505 1505 2106" fill="#af1e2d"/>
<g id="STOP">
<path class="a" d="m382.95 1351.7c55.8 0 101.43-50.58 101.43-108.72-0.09-153.36-268.83-153-268.83-348.75 0-103.59 81.18-186.84 185.13-186.84 101.52 0 180.18 78.21 182.7 186.93h-99.09c-2.52-50.49-38.071-83.34-83.7-83.34-48.24 0-86.22 35.28-86.22 83.25 0 43.111 27.09 60.3 60.66 81.361 97.38 58.77 208.26 129.69 208.26 267.48 0 116.55-88.829 209.7-200.43 209.7-126.81 0-202.86-107.28-202.86-225h101.61c0 61.29 30.33 123.93 101.34 123.93z"/>
<path class="a" d="M866.161,1440H762.3V816.034H630.541V720h367.38v96.031H866.161Z"/>
<path class="a" d="m1057 1078.5c0-377.01 174.87-370.98 213.66-370.98s211.32-5.76 211.32 371.25c0 379.71-172.53 373.77-211.32 373.77s-213.66 5.939-213.66-374.04zm212.49-270c-20.521 0-113.31-4.23-113.31 270.54 0 276.75 92.79 272.52 113.31 272.52s113.22 4.23 113.22-272.52c0-274.77-92.699-270.54-113.22-270.54z"/>
<path class="a" d="m1679.9 1124.2v315.81h-103.32v-720h214.29c113.49 0 189.09 81.183 189.09 202.14 0 131.4-68.13 202.05-189.09 202.05zm0-98.55h105.84c60.48 0 93.33-37.8 93.33-103.5 0-60.661-38.161-101.07-93.24-101.07h-105.93z"/>
</g>
</svg>
