<?xml version="1.0" encoding="utf-8"?>
<!-- Generator: Adobe Illustrator 27.7.0, SVG Export Plug-In . SVG Version: 6.00 Build 0)  -->
<svg version="1.1" id="For_Sheets" xmlns="http://www.w3.org/2000/svg" xmlns:xlink="http://www.w3.org/1999/xlink" x="0px" y="0px"
	 viewBox="0 0 173.3 173.3" style="enable-background:new 0 0 173.3 173.3;" xml:space="preserve">
<style type="text/css">
	.st0{fill:#FFFFFF;}
</style>
<g>
	<g>
		<path class="st0" d="M11.1,173.2c-6,0-10.9-4.9-10.9-10.9V11C0.1,5,5,0.1,11.1,0.1h151.2c6,0,10.9,4.9,10.9,10.9v151.2
			c0,6-4.9,10.9-10.9,10.9H11.1z"/>
		<path d="M162.2,0.2c5.9,0,10.8,4.9,10.8,10.8v151.2c0,5.9-4.9,10.8-10.8,10.8H11c-5.9,0-10.8-4.9-10.8-10.8V11.1
			C0.2,5.1,5.1,0.2,11,0.2H162.2 M162.2,0H11C5,0,0,5,0,11.1v151.2c0,6.1,5,11.1,11,11.1h151.2c6.1,0,11-5,11-11.1V11.1
			C173.3,5,168.3,0,162.2,0L162.2,0z"/>
	</g>
	<path d="M11,170.4c-4.5,0-8.1-3.6-8.1-8.1V11.1C2.9,6.6,6.6,3,11,3h151.2c4.5,0,8.1,3.6,8.1,8.1v151.2c0,4.5-3.6,8.1-8.1,8.1H11z
		 M162.2,165.9c2,0,3.6-1.6,3.6-3.6V11.1c0-2-1.6-3.6-3.6-3.6H11c-2,0-3.6,1.6-3.6,3.6v151.2c0,2,1.6,3.6,3.6,3.6H162.2z"/>
	<g>
		<polygon points="31.9,140.6 26.2,140.6 26.2,109.7 17.9,109.7 17.9,104.6 40.3,104.6 40.3,109.7 31.9,109.7 		"/>
		<path d="M43.8,127.8v-23.1h5.7v23.1c0,4.7,2.7,7.7,6.6,7.7s6.6-3,6.6-7.7v-23.1h5.7v23.1c0,11.4-8.7,13.5-12.3,13.5
			C52.8,141.3,43.8,139.4,43.8,127.8z"/>
		<path d="M86.7,119.2c4.5,0,5.2-3.3,5.2-4.4c0-1.6-1.2-4.4-5-4.4h-7.4v8.8H86.7z M79.6,125v15.7h-5.7v-36h13
			c8.3,0,10.7,6.6,10.7,10.1c0,1.3-0.5,6.6-5.6,9l6.3,16.9h-6.2L86.4,125H79.6z"/>
		<polygon points="108.1,116.3 108.1,140.6 102.4,140.6 102.4,104.6 108.1,104.6 121.2,127.6 121.2,104.6 126.9,104.6 126.9,140.6 
			121.8,140.6 		"/>
		<path d="M130.9,132.2l5.4-2c1.5,3.4,4.3,5.3,7.7,5.3c3.3,0,5.6-2.3,5.6-5.3c0-4.8-5.6-5.6-10.2-7.5c-2.1-0.9-6.9-3-6.9-9
			c0-7.1,4.8-9.7,11.2-9.7c5.1,0,8.5,2.9,10.2,7.3l-5.1,1.5c-0.6-1.4-2.6-3.2-5.3-3.2c-5.1,0-5.6,2.7-5.6,3.6c0,3.4,2.9,4,7.6,5.5
			c4.8,1.5,9.8,3.7,9.8,11.4c0,7.8-6.3,11-11.4,11C137.8,141.3,133.3,137.6,130.9,132.2z"/>
	</g>
	<g>
		<path d="M58.7,46.6v29.3h-6.8V32.7h6.8l15.8,27.6V32.7h6.8v43.2h-6.1L58.7,46.6z"/>
		<path d="M121.5,54.2c0,1.5,0.3,22.4-15.3,22.4S90.8,55.8,90.8,54.2c0-1.5-0.3-22.4,15.3-22.4S121.5,52.7,121.5,54.2z M106.2,69.6
			c4.7,0,8.4-4.4,8.4-15.4c0-11-3.8-15.4-8.4-15.4c-4.7,0-8.4,4.4-8.4,15.4C97.7,65.2,101.5,69.6,106.2,69.6z"/>
	</g>
</g>
</svg>
