<svg id="R3-2" xmlns="http://www.w3.org/2000/svg" width="24in" height="24in" viewBox="0 0 1728 1728">
  <g>
    <rect width="1728" height="1728" rx="108" fill="#fff"/>
    <path d="M1620,2.2537A105.8661,105.8661,0,0,1,1725.7463,108V1620A105.8661,105.8661,0,0,1,1620,1725.7463H108A105.8661,105.8661,0,0,1,2.2537,1620V108A105.8661,105.8661,0,0,1,108,2.2537ZM108,0A108,108,0,0,0,0,108V1620a108,108,0,0,0,108,108H1620a108,108,0,0,0,108-108V108A108,108,0,0,0,1620,0Z"/>
  </g>
  <path d="M1620,27H108a81.0963,81.0963,0,0,0-81,81V1620a81.0964,81.0964,0,0,0,81,81H1620a81.0964,81.0964,0,0,0,81-81V108A81.0964,81.0964,0,0,0,1620,27Zm36,1593a36.0414,36.0414,0,0,1-36,36H108a36.0414,36.0414,0,0,1-36-36V108a36.0414,36.0414,0,0,1,36-36H1620a36.0414,36.0414,0,0,1,36,36Z"/>
  <g>
    <path d="M721.94,860.5365c12.87,32.01-24.75,62.01-53.46,42.01L324,665.4965l344.48-236.05c28.71-20.01,66.33,10,53.46,43l-60.4,193.37Z"/>
    <path d="M1152,720v612H972V792a36,36,0,0,0-36-36H661.54V576H1008A144,144,0,0,1,1152,720Z"/>
  </g>
  <path d="M864,108c-417.53,0-756,338.47-756,756s338.47,756,756,756,756-338.47,756-756S1281.53,108,864,108Zm0,1368c-338,0-612-274-612-612A609.3813,609.3813,0,0,1,383.32,485.15l859.53,859.53A609.3814,609.3814,0,0,1,864,1476Zm480.68-233.15L485.15,383.32A609.3813,609.3813,0,0,1,864,252c338,0,612,274,612,612A609.3816,609.3816,0,0,1,1344.68,1242.85Z" fill="#af1e2d"/>
</svg>
